<svg width="36" height="36" viewBox="0 0 36 36" fill="none" xmlns="http://www.w3.org/2000/svg">
<path d="M15 4.125C17.0551 4.12474 19.0683 4.70684 20.8062 5.80382C22.544 6.90081 23.9355 8.46779 24.8193 10.3232C25.7031 12.1786 26.0431 14.2464 25.7999 16.2871C25.5567 18.3278 24.7401 20.2578 23.445 21.8535L30.795 29.2035C30.9968 29.404 31.1152 29.6735 31.1262 29.9577C31.1373 30.242 31.0403 30.5199 30.8548 30.7355C30.6692 30.9511 30.4089 31.0884 30.1261 31.1198C29.8434 31.1511 29.5593 31.0742 29.331 30.9045L29.205 30.795L21.8535 23.445C20.5018 24.5417 18.9066 25.2979 17.202 25.6501C15.4974 26.0023 13.7332 25.9401 12.0575 25.4689C10.3819 24.9977 8.8439 24.1311 7.57272 22.9421C6.30154 21.753 5.33435 20.2762 4.75242 18.6358C4.17049 16.9953 3.99083 15.2391 4.22854 13.5148C4.46625 11.7905 5.11438 10.1485 6.11847 8.72666C7.12256 7.30485 8.45326 6.14483 9.99875 5.34409C11.5442 4.54334 13.2594 4.12527 15 4.125V4.125ZM15 6.375C13.8673 6.375 12.7458 6.59809 11.6993 7.03154C10.6529 7.46499 9.70209 8.1003 8.90118 8.9012C8.10028 9.70211 7.46497 10.6529 7.03152 11.6994C6.59807 12.7458 6.37498 13.8673 6.37498 15C6.37498 16.1327 6.59807 17.2542 7.03152 18.3006C7.46497 19.3471 8.10028 20.2979 8.90118 21.0988C9.70209 21.8997 10.6529 22.535 11.6993 22.9685C12.7458 23.4019 13.8673 23.625 15 23.625C17.2875 23.625 19.4813 22.7163 21.0988 21.0988C22.7163 19.4813 23.625 17.2875 23.625 15C23.625 12.7125 22.7163 10.5187 21.0988 8.9012C19.4813 7.2837 17.2875 6.375 15 6.375V6.375Z" fill="black"/>
</svg>
